<svg xmlns="http://www.w3.org/2000/svg" viewBox="0 0 20.9 11.8">
  <title>defs-of</title>
  <g id="Layer_2" data-name="Layer 2">
    <g id="Of">
      <path d="M11.7,5.9a6.2,6.2,0,0,1-.4,2.4,5.6,5.6,0,0,1-3.1,3.1,6,6,0,0,1-2.3.4,6,6,0,0,1-2.3-.4A5.6,5.6,0,0,1,.4,8.3,6.2,6.2,0,0,1,0,5.9,6.2,6.2,0,0,1,.4,3.5,5.6,5.6,0,0,1,3.5.4,6,6,0,0,1,5.9,0,6,6,0,0,1,8.2.4a5.6,5.6,0,0,1,3.1,3.1A6.2,6.2,0,0,1,11.7,5.9Zm-1.2,0A5.5,5.5,0,0,0,10.2,4a4.7,4.7,0,0,0-.9-1.6A4.4,4.4,0,0,0,7.8,1.4,4.6,4.6,0,0,0,5.9,1a4.6,4.6,0,0,0-1.9.4A4.4,4.4,0,0,0,2.4,2.5,4.7,4.7,0,0,0,1.5,4a5.7,5.7,0,0,0,0,3.7,4.6,4.6,0,0,0,.9,1.6,4.5,4.5,0,0,0,1.5,1.1,4.6,4.6,0,0,0,1.9.4,4.6,4.6,0,0,0,1.9-.4A4.5,4.5,0,0,0,9.3,9.4a4.6,4.6,0,0,0,.9-1.6A5.5,5.5,0,0,0,10.5,5.9Zm4.7,5.6H14.1V.3h6.8v1H15.3V5.2h5.2v1H15.3Z" fill="#fff"/>
    </g>
  </g>
</svg>
