<svg xmlns="http://www.w3.org/2000/svg" viewBox="0 0 80.5 11.8">
  <title>defs-windows</title>
  <g id="Layer_2" data-name="Layer 2">
    <g id="Windows">
      <path d="M4,10H4L6.8.3H8.2L11,10h0L13.8.3H15L11.7,11.5H10.3L7.5,1.9h0L4.7,11.5H3.3L0,.3H1.2Zm13.9,1.6H16.7V.3h1.1Zm11-1.7h0V.3H30V11.5H28.6L22,1.9h0v9.7H20.9V.3h1.4ZM33,.3h3.7a6.7,6.7,0,0,1,2.1.3,5.8,5.8,0,0,1,1.9,1.1,5.4,5.4,0,0,1,1.4,1.8,5.5,5.5,0,0,1,.5,2.5,5.4,5.4,0,0,1-.5,2.5,5.4,5.4,0,0,1-1.4,1.8,5.8,5.8,0,0,1-1.9,1.1,6.7,6.7,0,0,1-2.1.3H33Zm1.1,10.2h2.3a5.7,5.7,0,0,0,2.2-.4,4.6,4.6,0,0,0,1.6-1,4.3,4.3,0,0,0,.9-1.5,4.8,4.8,0,0,0,0-3.4,4.3,4.3,0,0,0-.9-1.5,4.6,4.6,0,0,0-1.6-1,5.7,5.7,0,0,0-2.2-.4H34.1Zm22-4.6a6.2,6.2,0,0,1-.4,2.4,5.6,5.6,0,0,1-3.1,3.1,6.3,6.3,0,0,1-4.7,0,5.6,5.6,0,0,1-3.1-3.1,6.2,6.2,0,0,1-.4-2.4,6.2,6.2,0,0,1,.4-2.4A5.6,5.6,0,0,1,48,.4a6.3,6.3,0,0,1,4.7,0,5.6,5.6,0,0,1,3.1,3.1A6.2,6.2,0,0,1,56.2,5.9ZM55,5.9A5.5,5.5,0,0,0,54.6,4a4.7,4.7,0,0,0-.9-1.6,4.4,4.4,0,0,0-1.5-1.1,5,5,0,0,0-3.9,0,4.4,4.4,0,0,0-1.5,1.1A4.7,4.7,0,0,0,46,4a5.7,5.7,0,0,0,0,3.7,4.6,4.6,0,0,0,.9,1.6,4.5,4.5,0,0,0,1.5,1.1,5,5,0,0,0,3.9,0,4.5,4.5,0,0,0,1.5-1.1,4.6,4.6,0,0,0,.9-1.6A5.5,5.5,0,0,0,55,5.9Zm6.3,4h0L64.1.3h1.4L68.3,10h0L71.1.3h1.2L69,11.5H67.6L64.8,1.9h0l-2.8,9.7H60.6L57.3.3h1.2ZM79.5,2.1a2.8,2.8,0,0,0-.9-.8A2.9,2.9,0,0,0,77.1,1h-.8l-.8.4-.6.7a2,2,0,0,0-.2.9,1.7,1.7,0,0,0,.2.9l.5.6.8.4.9.3,1.2.4,1.1.6a2.8,2.8,0,0,1,.8.9,2.9,2.9,0,0,1,.3,1.4,3.1,3.1,0,0,1-.3,1.5,3,3,0,0,1-.8,1l-1.2.6-1.3.2h-1l-1-.3-.9-.5-.7-.7,1-.7a3,3,0,0,0,1,1,2.9,2.9,0,0,0,1.6.4h.9l.8-.4.6-.7a1.9,1.9,0,0,0,.2-.9,1.9,1.9,0,0,0-.2-1L78.5,7l-.9-.4-1-.3-1.1-.4-1-.6a2.7,2.7,0,0,1-.7-.9,2.9,2.9,0,0,1-.3-1.3,2.8,2.8,0,0,1,.3-1.4,2.9,2.9,0,0,1,.9-1L75.9.2,77.2,0a4.3,4.3,0,0,1,2,.4,3.4,3.4,0,0,1,1.2,1Z" fill="#fff"/>
    </g>
  </g>
</svg>
