<svg xmlns="http://www.w3.org/2000/svg" viewBox="0 0 90.1 33.2">
  <title>defs-san</title>
  <g id="Layer_2" data-name="Layer 2">
    <g id="San">
      <path d="M19.3,9a6.9,6.9,0,0,0-2.6-2,7.2,7.2,0,0,0-3.1-.7H12.1a4,4,0,0,0-1.4.5,3.5,3.5,0,0,0-1,1,2.6,2.6,0,0,0-.4,1.5,2.5,2.5,0,0,0,.3,1.3,3,3,0,0,0,1,.9l1.5.7,2,.7,3.3,1.2A12.5,12.5,0,0,1,20.6,16a9,9,0,0,1,2.4,2.7,7.6,7.6,0,0,1,.9,3.9,10.3,10.3,0,0,1-1,4.7,9.4,9.4,0,0,1-2.7,3.3,11.5,11.5,0,0,1-3.9,1.9,16.3,16.3,0,0,1-4.5.6A18.6,18.6,0,0,1,5.3,32,13.9,13.9,0,0,1,0,28.6l5-5.1A9.2,9.2,0,0,0,8,25.9a8.3,8.3,0,0,0,3.8,1l1.6-.2a4.1,4.1,0,0,0,1.4-.6,2.9,2.9,0,0,0,1-1.1,3.4,3.4,0,0,0,.4-1.6,2.5,2.5,0,0,0-.4-1.5,4.4,4.4,0,0,0-1.3-1.1l-2-.9-2.8-.9-3-1.2a9.9,9.9,0,0,1-2.6-1.7,7.9,7.9,0,0,1-1.8-2.5,8.6,8.6,0,0,1-.7-3.6A8.9,8.9,0,0,1,2.6,5.4,9.3,9.3,0,0,1,5.4,2.3,12.1,12.1,0,0,1,9.4.6,17.8,17.8,0,0,1,13.8,0a16.4,16.4,0,0,1,5.5,1,14.1,14.1,0,0,1,4.9,2.9ZM50.3,32.4l-2.5-6.2H35.6l-2.3,6.2H25L38.3.8h7.4L58.8,32.4ZM41.8,9.2l-4,10.8h7.9ZM81.5,32.4,68.8,11.7h-.1l.2,20.6H61.4V.8h8.7L82.7,21.4h.1L82.7.8h7.4V32.4Z" fill="#fff"/>
    </g>
  </g>
</svg>
