<svg xmlns="http://www.w3.org/2000/svg" viewBox="0 0 17.1 28.5">
  <title>defs-volume</title>
  <g id="Layer_2" data-name="Layer 2">
    <g id="Sound">
      <path d="M17.1,2.3A2.3,2.3,0,0,0,16.4.7L15.7.2a2.3,2.3,0,0,0-2.5.5L5.7,8.1H2.3A2.3,2.3,0,0,0,0,10.5v7.6a2.3,2.3,0,0,0,2.3,2.3H5.7l7.5,7.5a2.3,2.3,0,0,0,3.9-1.6ZM5.7,18.8H2.3a.8.8,0,0,1-.8-.8V10.5a.8.8,0,0,1,.8-.8H5.7v9.2Zm9.4,8.1a.8.8,0,0,1-.8-.2l-.2-.2V1.9l.2-.2a.8.8,0,0,1,.8-.2l.2.2a.8.8,0,0,1,.2.5V26.2A.8.8,0,0,1,15.1,26.9Z" fill="#fff"/>
    </g>
  </g>
</svg>
