<svg xmlns="http://www.w3.org/2000/svg" viewBox="0 0 257.8 33.2">
  <title>defs-francisco</title>
  <g id="Layer_2" data-name="Layer 2">
    <g id="Francisco">
      <path d="M7.5,7.4v6.5H19.7v6.3H7.5V32.4H0V.8H20.8V7.4Zm35,25L35.7,19.9H33.1V32.4H25.7V.8h12a20.9,20.9,0,0,1,4.4.5A11.5,11.5,0,0,1,46,2.9a8.3,8.3,0,0,1,2.7,2.9,9.2,9.2,0,0,1,1,4.5A8.4,8.4,0,0,1,48,15.8a9.5,9.5,0,0,1-4.8,3.1l8.2,13.5Zm-.3-21.9a3.2,3.2,0,0,0-.5-1.8,3.2,3.2,0,0,0-1.2-1.1,5.3,5.3,0,0,0-1.7-.5H33.1v7.4h3.6l1.9-.2a6.1,6.1,0,0,0,1.8-.6,3.2,3.2,0,0,0,1.8-3.1ZM76.6,32.4l-2.5-6.2H61.9l-2.3,6.2H51.3L64.6.8H72L85.1,32.4ZM68.1,9.3l-4,10.8h7.9Zm39.6,23.1L95,11.8h-.1l.2,20.6H87.7V.8h8.7L109,21.4h.1L109,.8h7.4V32.4Zm37.7-.6a16.9,16.9,0,0,1-7.1,1.4,18.5,18.5,0,0,1-6.8-1.2,15.6,15.6,0,0,1-8.9-8.7,17.3,17.3,0,0,1-1.3-6.8,17.3,17.3,0,0,1,1.3-6.9,15.3,15.3,0,0,1,3.6-5.2,16.1,16.1,0,0,1,5.4-3.3,19.5,19.5,0,0,1,13.3,0,12.6,12.6,0,0,1,5.2,3.5l-5.2,5.2a6.4,6.4,0,0,0-2.8-2.2,9.3,9.3,0,0,0-3.6-.7,9,9,0,0,0-3.7.7,8.6,8.6,0,0,0-2.9,2,9.2,9.2,0,0,0-1.9,3.1,10.8,10.8,0,0,0-.7,3.9,11.1,11.1,0,0,0,.7,3.9,9.1,9.1,0,0,0,1.8,3.1,8.3,8.3,0,0,0,2.8,2,9,9,0,0,0,3.6.7,8.4,8.4,0,0,0,4-.9,7.7,7.7,0,0,0,2.7-2.3l5.3,5A15,15,0,0,1,145.5,31.8Zm8.4.6V.8h7.7V32.4ZM184.8,9a6.9,6.9,0,0,0-2.6-2,7.2,7.2,0,0,0-3.1-.7h-1.5a4,4,0,0,0-1.4.5,3.5,3.5,0,0,0-1,1,2.6,2.6,0,0,0-.4,1.5,2.5,2.5,0,0,0,.3,1.3,3,3,0,0,0,1,.9l1.5.7,2,.7,3.3,1.2a12.5,12.5,0,0,1,3.2,1.7,9,9,0,0,1,2.4,2.7,7.6,7.6,0,0,1,.9,3.9,10.3,10.3,0,0,1-1,4.7,9.4,9.4,0,0,1-2.7,3.3,11.5,11.5,0,0,1-3.9,1.9,16.3,16.3,0,0,1-4.5.6,18.6,18.6,0,0,1-6.6-1.2,13.9,13.9,0,0,1-5.3-3.4l5-5.1a9.2,9.2,0,0,0,3.1,2.4,8.3,8.3,0,0,0,3.8,1l1.6-.2a4.1,4.1,0,0,0,1.4-.6,2.9,2.9,0,0,0,1-1.1,3.4,3.4,0,0,0,.4-1.6,2.5,2.5,0,0,0-.4-1.5,4.4,4.4,0,0,0-1.3-1.1l-2-.9-2.8-.9-3-1.2a9.9,9.9,0,0,1-2.6-1.7,7.9,7.9,0,0,1-1.8-2.5,8.6,8.6,0,0,1-.7-3.6,8.9,8.9,0,0,1,1.1-4.5,9.3,9.3,0,0,1,2.8-3.1A12.1,12.1,0,0,1,174.9.6a17.8,17.8,0,0,1,4.4-.6,16.4,16.4,0,0,1,5.5,1,14.1,14.1,0,0,1,4.9,2.9ZM217,31.8a16.9,16.9,0,0,1-7.1,1.4,18.5,18.5,0,0,1-6.8-1.2,15.6,15.6,0,0,1-8.9-8.7,17.3,17.3,0,0,1-1.3-6.8,17.3,17.3,0,0,1,1.3-6.9,15.3,15.3,0,0,1,3.6-5.2,16.1,16.1,0,0,1,5.4-3.3,19.5,19.5,0,0,1,13.3,0,12.6,12.6,0,0,1,5.2,3.5l-5.2,5.2a6.4,6.4,0,0,0-2.8-2.2,9.3,9.3,0,0,0-3.6-.7,9,9,0,0,0-3.7.7,8.6,8.6,0,0,0-2.9,2,9.2,9.2,0,0,0-1.9,3.1,10.8,10.8,0,0,0-.7,3.9,11.1,11.1,0,0,0,.7,3.9,9.1,9.1,0,0,0,1.8,3.1,8.3,8.3,0,0,0,2.8,2,9,9,0,0,0,3.6.7,8.4,8.4,0,0,0,4-.9,7.7,7.7,0,0,0,2.7-2.3l5.3,5A15,15,0,0,1,217,31.8Zm40.8-15.4a17.6,17.6,0,0,1-1.3,6.8,15.6,15.6,0,0,1-3.6,5.3,16,16,0,0,1-5.5,3.4,19.2,19.2,0,0,1-6.9,1.2,19,19,0,0,1-6.8-1.2,16,16,0,0,1-5.4-3.4,15.6,15.6,0,0,1-3.6-5.3,17.6,17.6,0,0,1-1.3-6.8,17.4,17.4,0,0,1,1.3-6.8,15,15,0,0,1,3.6-5.2,16,16,0,0,1,5.4-3.3,20.8,20.8,0,0,1,13.7,0,16,16,0,0,1,5.5,3.3,15,15,0,0,1,3.6,5.2A17.4,17.4,0,0,1,257.8,16.5Zm-8.2,0a10.8,10.8,0,0,0-.7-3.8,9.1,9.1,0,0,0-1.8-3.1,8.5,8.5,0,0,0-2.9-2,9,9,0,0,0-3.7-.7,8.8,8.8,0,0,0-6.5,2.7,8.7,8.7,0,0,0-1.8,3.1,11.2,11.2,0,0,0-.6,3.8,11.3,11.3,0,0,0,.7,3.9,9.3,9.3,0,0,0,1.8,3.1,8.4,8.4,0,0,0,2.8,2,9.4,9.4,0,0,0,7.3,0,8.7,8.7,0,0,0,2.9-2,9.1,9.1,0,0,0,1.9-3.1A11.3,11.3,0,0,0,249.6,16.5Z" fill="#fff"/>
    </g>
  </g>
</svg>
