<svg xmlns="http://www.w3.org/2000/svg" viewBox="0 0 42.6 31.2">
  <title>defs-location</title>
  <g id="Layer_2" data-name="Layer 2">
    <g id="Location">
      <path d="M20,24.2c-3.4-3.9-8-9.5-8-14.9a9.3,9.3,0,1,1,18.6,0c0,5.4-4.7,11-8,14.9a1.9,1.9,0,0,1-1.2.6h-.1A1.9,1.9,0,0,1,20,24.2Zm1.4-9.3A5.6,5.6,0,0,0,27,9.3a5.5,5.5,0,0,0-5.7-5.7,5.4,5.4,0,0,0-5.6,5.7A5.5,5.5,0,0,0,21.4,14.9ZM33,20.4H27.8a80.8,80.8,0,0,1-5.2,6.8,2.1,2.1,0,0,1-1.3.7,2.1,2.1,0,0,1-1.3-.7c-1.7-1.9-3.4-4.4-5.2-6.8H9.3L0,31.2H42.6Z" fill="#fff"/>
    </g>
  </g>
</svg>
