<svg xmlns="http://www.w3.org/2000/svg" viewBox="0 0 32.9 26.8">
  <title>defs-twitter</title>
  <g id="Layer_2" data-name="Layer 2">
    <g id="Social">
      <path d="M29.6,6.7c0,.3,0,.6,0,.9,0,8.9-6.8,19.2-19.2,19.2A19.1,19.1,0,0,1,0,23.7H1.6A13.5,13.5,0,0,0,10,20.9a6.8,6.8,0,0,1-6.3-4.7H5l1.8-.2A6.8,6.8,0,0,1,1.3,9.5h0a6.7,6.7,0,0,0,3.1.8,6.8,6.8,0,0,1-2.1-9A19.2,19.2,0,0,0,16.2,8.3,6.8,6.8,0,0,1,27.7,2.1,13.5,13.5,0,0,0,32,.5a6.8,6.8,0,0,1-3,3.7,13.5,13.5,0,0,0,3.9-1.1A13.7,13.7,0,0,1,29.6,6.7Z" fill="#fff"/>
    </g>
  </g>
</svg>
