<svg xmlns="http://www.w3.org/2000/svg" viewBox="0 0 11.3 10.9">
  <title>google-defs</title>
  <g id="Layer_2" data-name="Layer 2">
    <g id="Layer_1-2" data-name="Layer 1">
      <g id="google">
        <path d="M5.5,3.9c0-.7-.4-1.8-1.2-1.8a.9.9,0,0,0-.7.3,1.1,1.1,0,0,0-.2.7c0,.7.4,1.7,1.2,1.7a1,1,0,0,0,.7-.3A1,1,0,0,0,5.5,3.9ZM5,6.5H4.8l-1,.2a1.1,1.1,0,0,0-.8,1c0,.7.7,1.2,1.7,1.2s1.5-.5,1.5-1.1S5.8,7,5,6.5ZM10.9,0H.3A.3.3,0,0,0,0,.3V10.6a.3.3,0,0,0,.3.3H10.9a.3.3,0,0,0,.3-.3V.3A.3.3,0,0,0,10.9,0ZM4.2,9.2C2.7,9.2,2,8.6,2,7.8a1.4,1.4,0,0,1,.8-1.2,4.2,4.2,0,0,1,1.9-.5,1,1,0,0,1-.3-.7.9.9,0,0,1,.1-.4H4.2A1.6,1.6,0,0,1,2.5,3.6a1.7,1.7,0,0,1,.6-1.3A3,3,0,0,1,5,1.7H7l-.6.4H5.7a1.7,1.7,0,0,1,.7,1.3,1.6,1.6,0,0,1-.8,1.4.7.7,0,0,0-.3.5.6.6,0,0,0,.3.4l.4.3a1.7,1.7,0,0,1,.8,1.4C6.8,8.3,5.8,9.2,4.2,9.2ZM9.4,5.4h-1v1H7.9v-1h-1V4.9h1v-1h.5v1h1Z" fill="#fff"/>
      </g>
    </g>
  </g>
</svg>
