<svg xmlns="http://www.w3.org/2000/svg" viewBox="0 0 11.1 11">
  <title>instagram-defs</title>
  <g id="Layer_2" data-name="Layer 2">
    <g id="Layer_1-2" data-name="Layer 1">
      <path id="instagram" d="M0,2.1V8.9A2.1,2.1,0,0,0,2.1,11H9a2.1,2.1,0,0,0,2.1-2.1V2.1A2.1,2.1,0,0,0,9,0H2.1A2.1,2.1,0,0,0,0,2.1Zm9.6-.9h.2V3.1H7.9V1.3ZM4,4.4a2,2,0,0,1,3.2,0,1.9,1.9,0,0,1,.4,1.1,2,2,0,0,1-3.9,0A1.9,1.9,0,0,1,4,4.4ZM5.6,8.5a3,3,0,0,0,3-3,3,3,0,0,0-.2-1.1H10V8.9A1.1,1.1,0,0,1,9,9.9H2.1A1.1,1.1,0,0,1,1.1,8.9V4.4H2.7a3,3,0,0,0-.2,1.1A3,3,0,0,0,5.6,8.5Z" fill="#fff"/>
    </g>
  </g>
</svg>
