<svg xmlns="http://www.w3.org/2000/svg" viewBox="0 0 12.2 9.9">
  <title>twitter-defs</title>
  <g id="Layer_2" data-name="Layer 2">
    <g id="Layer_1-2" data-name="Layer 1">
      <path id="twitter" d="M6,3.1A7.1,7.1,0,0,1,.9.5a2.5,2.5,0,0,0,.8,3.3L.5,3.5h0a2.5,2.5,0,0,0,2,2.4H1.4A2.5,2.5,0,0,0,3.7,7.7,5.1,5.1,0,0,1,.6,8.8H0A7.1,7.1,0,0,0,3.8,9.9,7.1,7.1,0,0,0,11,2.8q0-.2,0-.3a5.1,5.1,0,0,0,1.3-1.3l-1.4.4A2.5,2.5,0,0,0,11.9.2a5.1,5.1,0,0,1-1.6.6A2.5,2.5,0,0,0,6,2.5,2.5,2.5,0,0,0,6,3.1Z" fill="#fff"/>
    </g>
  </g>
</svg>
