<svg xmlns="http://www.w3.org/2000/svg" viewBox="0 0 10.5 12.5">
  <title>youtube-defs</title>
  <g id="Layer_2" data-name="Layer 2">
    <g id="Layer_1-2" data-name="Layer 1">
      <path d="M8.9,8.8a.3.3,0,0,0-.3-.3h0a.3.3,0,0,0-.3.3v.4h.7ZM6.3,8.3a.3.3,0,0,0-.3.3v1.9a.3.3,0,0,0,.6,0V8.6A.3.3,0,0,0,6.3,8.3ZM8.8,5.6H1.7A1.7,1.7,0,0,0,0,7.2v3.7a1.7,1.7,0,0,0,1.7,1.6H8.8a1.7,1.7,0,0,0,1.7-1.6V7.2A1.7,1.7,0,0,0,8.8,5.6ZM1.5,11.3V7.4H.7V6.9H3.1v.6H2.2v3.9Zm3.4,0H4.2v-.4a.9.9,0,0,1-1.1.4c-.2-.1-.2-.3-.2-.5s0-.3,0-.7V8h.7v2.1a4.1,4.1,0,0,0,0,.5c.1.3.4.1.4,0a3.7,3.7,0,0,0,0-.5V8h.7ZM5.9,11v.3H5.3V6.9H6V8.1c.7-.5,1.2-.1,1.2.5v1.7C7.2,11.2,6.7,11.7,5.9,11Zm1.7-.8v-1a2.3,2.3,0,0,1,.1-.7L8,8c.4-.3,1.3-.2,1.4.4a7.4,7.4,0,0,1,0,.9v.5H8.2v.8a.3.3,0,0,0,.3.3h.1a.3.3,0,0,0,.3-.3v-.3h.6C9.7,11.6,7.6,11.9,7.6,10.2Zm-1-5.6.2.2h.6l.2-.3v.3h.8V1.4H7.8V4a.3.3,0,0,1-.5,0V1.4H6.6V3.7c0,.3,0,.5,0,.6Zm-2.5-1a3.7,3.7,0,0,0,0,.7l.2.4.3.2h.9l.3-.3.2-.4a4.7,4.7,0,0,0,0-.7V2.5a2.8,2.8,0,0,0,0-.6l-.2-.4-.3-.3H5.1l-.6.2a.9.9,0,0,0-.3.4,2.8,2.8,0,0,0-.1.8Zm.6-1.4a.3.3,0,1,1,.6,0V4a.3.3,0,1,1-.6,0ZM2.6,4.9h.8V2.3L4.2,0H3.4L2.9,1.7,2.4,0H1.6l1,2.3Z" fill="#fff"/>
    </g>
  </g>
</svg>
